<svg width="16" height="19" viewBox="0 0 16 19" fill="none" xmlns="http://www.w3.org/2000/svg">
<g clip-path="url(#clip0_26_56)">
<path d="M8.00006 17.8125C7.36935 17.8125 6.8572 17.2789 6.8572 16.6239H5.71434C5.71434 17.9342 6.74006 19 8.00006 19C9.26006 19 10.2858 17.9342 10.2858 16.6239H9.14292C9.14292 17.2789 8.63078 17.8125 8.00006 17.8125ZM15.4779 12.4246C14.4794 11.4367 13.7158 10.4029 13.7158 6.89863C13.7158 3.9451 11.4519 1.53633 8.57149 1.24502V0.59375C8.57149 0.265703 8.31578 0 8.00006 0C7.68435 0 7.42863 0.265703 7.42863 0.59375V1.24539C4.54827 1.5367 2.28434 3.9451 2.28434 6.89863C2.28434 10.4025 1.52041 11.4367 0.521835 12.4246C0.022906 12.9181 -0.134594 13.6644 0.120049 14.3257C0.380049 15.0011 1.00576 15.4375 1.71434 15.4375H14.2858C14.9944 15.4375 15.6201 15.0007 15.8801 14.3253C16.1347 13.664 15.9769 12.9181 15.4779 12.4246ZM14.2858 14.25H1.71434C1.20612 14.25 0.952193 13.6388 1.31005 13.2848C2.55505 12.0531 3.4272 10.6745 3.4272 6.899C3.4272 4.39857 5.47256 2.375 8.00006 2.375C10.5272 2.375 12.5729 4.3982 12.5729 6.89863C12.5729 10.6597 13.4376 12.0457 14.6901 13.2844C15.0494 13.6403 14.7919 14.25 14.2858 14.25Z" fill="black"/>
</g>
<defs>
<clipPath id="clip0_26_56">
<rect width="16" height="19" fill="white"/>
</clipPath>
</defs>
</svg>
