<svg width="19" height="19" viewBox="0 0 19 19" fill="none" xmlns="http://www.w3.org/2000/svg">
<g clip-path="url(#clip0_26_58)">
<path d="M18.8701 17.8719L14.083 13.0848C13.9977 12.9994 13.8863 12.9549 13.7676 12.9549H13.3854C14.6582 11.5781 15.4375 9.74121 15.4375 7.71875C15.4375 3.45488 11.9826 0 7.71875 0C3.45488 0 0 3.45488 0 7.71875C0 11.9826 3.45488 15.4375 7.71875 15.4375C9.74121 15.4375 11.5781 14.6582 12.9549 13.3891V13.7676C12.9549 13.8863 13.0031 13.9977 13.0848 14.083L17.8719 18.8701C18.0463 19.0445 18.3283 19.0445 18.5027 18.8701L18.8701 18.5027C19.0445 18.3283 19.0445 18.0463 18.8701 17.8719ZM7.71875 14.25C4.10801 14.25 1.1875 11.3295 1.1875 7.71875C1.1875 4.10801 4.10801 1.1875 7.71875 1.1875C11.3295 1.1875 14.25 4.10801 14.25 7.71875C14.25 11.3295 11.3295 14.25 7.71875 14.25Z" fill="black"/>
</g>
<defs>
<clipPath id="clip0_26_58">
<rect width="19" height="19" fill="white"/>
</clipPath>
</defs>
</svg>
